<!-- Generated by IcoMoon.io -->
<svg version="1.1" xmlns="http://www.w3.org/2000/svg" width="1024" height="1024" viewBox="0 0 1024 1024">
<title>twitter</title>
<g id="icomoon-ignore">
</g>
<path fill="#4d5ae5" d="M1024 512c0 0.197 0 0.429 0 0.661 0 141.176-57.319 268.965-149.955 361.363l-0.010 0.010c-92.409 92.646-220.198 149.965-361.374 149.965-0.232 0-0.465 0-0.697 0h0.036c-0.197 0-0.429 0-0.661 0-141.176 0-268.965-57.319-361.363-149.955l-0.010-0.010c-92.646-92.413-149.965-220.205-149.965-361.385 0-0.229 0-0.457 0-0.686v0.035c0-0.197 0-0.429 0-0.661 0-141.176 57.319-268.965 149.955-361.363l0.010-0.010c92.413-92.646 220.205-149.965 361.385-149.965 0.229 0 0.457 0 0.686 0h-0.035c0.197 0 0.429 0 0.661 0 141.176 0 268.965 57.319 361.363 149.955l0.010 0.010c92.646 92.409 149.965 220.198 149.965 361.374 0 0.232 0 0.465 0 0.697v-0.036z"></path>
<path fill="#f4f4fd" d="M580.224 375.219h37.376v-65.126c-15.839-1.844-34.19-2.896-52.786-2.896-0.595 0-1.189 0.001-1.783 0.003h0.092c-53.914 0-90.829 33.92-90.829 96.256v57.344h-59.494v72.806h59.494v183.194h72.934v-183.168h57.088l9.062-72.832h-66.176v-50.176c0.026-21.043 5.683-35.43 35.021-35.43z"></path>
</svg>
