<!-- Generated by IcoMoon.io -->
<svg version="1.1" xmlns="http://www.w3.org/2000/svg" width="1024" height="1024" viewBox="0 0 1024 1024">
<title>twitter</title>
<g id="icomoon-ignore">
</g>
<path fill="#4d5ae5" d="M1024 512c0 0.197 0 0.429 0 0.661 0 141.176-57.319 268.965-149.955 361.363l-0.010 0.010c-92.409 92.646-220.198 149.965-361.374 149.965-0.232 0-0.465 0-0.697 0h0.036c-0.197 0-0.429 0-0.661 0-141.176 0-268.965-57.319-361.363-149.955l-0.010-0.010c-92.646-92.413-149.965-220.205-149.965-361.385 0-0.229 0-0.457 0-0.686v0.035c0-0.197 0-0.429 0-0.661 0-141.176 57.319-268.965 149.955-361.363l0.010-0.010c92.413-92.646 220.205-149.965 361.385-149.965 0.229 0 0.457 0 0.686 0h-0.035c0.197 0 0.429 0 0.661 0 141.176 0 268.965 57.319 361.363 149.955l0.010 0.010c92.646 92.409 149.965 220.198 149.965 361.374 0 0.232 0 0.465 0 0.697v-0.036z"></path>
<path fill="#f4f4fd" d="M716.39 427.622c-0.947-21.76-4.48-36.736-9.523-49.69-5.427-14.224-13.484-26.346-23.662-36.309l-0.018-0.017c-9.979-10.136-22.069-18.162-35.561-23.369l-0.689-0.234c-13.056-5.043-27.904-8.576-49.664-9.523-21.939-1.024-28.928-1.28-84.506-1.28-55.629 0-62.592 0.256-84.429 1.203-21.76 0.947-36.71 4.48-49.664 9.523-14.234 5.423-26.365 13.481-36.335 23.663l-0.017 0.017c-10.134 9.98-18.16 22.070-23.369 35.56l-0.234 0.689c-5.043 13.056-8.55 27.904-9.523 49.664-1.024 21.939-1.28 28.928-1.28 84.531s0.256 62.566 1.203 84.403c0.947 21.76 4.48 36.736 9.523 49.69 5.197 13.773 13.286 26.086 23.68 36.352 10.24 10.368 22.656 18.458 36.25 23.578 13.056 5.043 27.904 8.576 49.69 9.523 21.837 0.973 28.8 1.203 84.429 1.203 55.603 0 62.566-0.256 84.403-1.203 21.76-0.947 36.736-4.48 49.69-9.523 27.601-10.875 49.043-32.309 59.682-59.195l0.247-0.709c5.043-13.056 8.576-27.955 9.523-49.715 0.973-21.837 1.203-28.8 1.203-84.403 0-55.629-0.077-62.592-1.024-84.429zM679.526 594.842c-0.896 20.019-4.25 30.822-7.066 38.016-7.052 17.924-20.968 31.849-38.426 38.752l-0.46 0.16c-7.194 2.79-18.074 6.144-37.99 7.014-21.606 0.973-28.083 1.203-82.739 1.203s-61.21-0.256-82.739-1.203c-19.994-0.87-30.797-4.224-38.016-7.040-9.229-3.444-17.089-8.654-23.512-15.268l-0.015-0.015c-6.612-6.449-11.818-14.305-15.138-23.088l-0.145-0.438c-2.816-7.194-6.144-18.074-7.040-37.99-0.947-21.606-1.203-28.109-1.203-82.739 0-54.656 0.256-61.21 1.203-82.739 0.896-19.994 4.25-30.822 7.040-38.016 3.277-8.883 8.499-16.947 15.36-23.526 6.656-6.784 14.643-12.006 23.552-15.283 7.168-2.816 18.074-6.144 37.99-7.040 21.606-0.947 28.083-1.203 82.739-1.203 54.733 0 61.184 0.256 82.739 1.203 19.994 0.896 30.797 4.25 38.016 7.040 8.858 3.277 16.947 8.499 23.501 15.283 6.81 6.656 12.032 14.643 15.283 23.552 2.816 7.168 6.17 18.074 7.066 37.99 0.947 21.606 1.178 28.083 1.178 82.739 0 54.63-0.23 61.056-1.178 82.662z"></path>
<path fill="#f4f4fd" d="M512.768 406.81c-57.116 1.3-102.92 47.909-102.92 105.216s45.804 103.916 102.8 105.214l0.121 0.002c57.116-1.3 102.92-47.909 102.92-105.216s-45.804-103.916-102.8-105.214l-0.121-0.002zM512.768 580.301c-37.707 0-68.275-30.568-68.275-68.275s30.568-68.275 68.275-68.275v0c37.707 0 68.275 30.568 68.275 68.275s-30.568 68.275-68.275 68.275v0zM646.707 402.662c0 13.573-11.003 24.576-24.576 24.576s-24.576-11.003-24.576-24.576v0c0-13.573 11.003-24.576 24.576-24.576s24.576 11.003 24.576 24.576v0z"></path>
</svg>
