<!-- Generated by IcoMoon.io -->
<svg version="1.1" xmlns="http://www.w3.org/2000/svg" width="1024" height="1024" viewBox="0 0 1024 1024">
<title>twitter</title>
<g id="icomoon-ignore">
</g>
<path fill="#4d5ae5" d="M1024 512c0 0.197 0 0.429 0 0.661 0 141.176-57.319 268.965-149.955 361.363l-0.010 0.010c-92.409 92.646-220.198 149.965-361.374 149.965-0.232 0-0.465 0-0.697 0h0.036c-0.197 0-0.429 0-0.661 0-141.176 0-268.965-57.319-361.363-149.955l-0.010-0.010c-92.646-92.413-149.965-220.205-149.965-361.385 0-0.229 0-0.457 0-0.686v0.035c0-0.197 0-0.429 0-0.661 0-141.176 57.319-268.965 149.955-361.363l0.010-0.010c92.413-92.646 220.205-149.965 361.385-149.965 0.229 0 0.457 0 0.686 0h-0.035c0.197 0 0.429 0 0.661 0 141.176 0 268.965 57.319 361.363 149.955l0.010 0.010c92.646 92.409 149.965 220.198 149.965 361.374 0 0.232 0 0.465 0 0.697v-0.036z"></path>
<path fill="#f4f4fd" d="M716.698 716.8h0.102v-150.272c0-73.472-15.821-130.099-101.734-130.099-41.293 0-69.018 22.682-80.333 44.16h-1.203v-37.299h-81.434v273.51h84.838v-135.424c0-35.661 6.758-70.144 50.893-70.144 43.52 0 44.16 40.704 44.16 72.448v133.12h84.736zM313.958 443.341h84.915v273.459h-84.915v-273.459zM356.378 307.2c-27.136 0-49.152 22.016-49.152 49.178 0 27.136 22.016 49.664 49.152 49.664 27.162 0 49.203-22.528 49.203-49.664s-22.093-49.178-49.229-49.178z"></path>
</svg>
