<!-- Generated by IcoMoon.io -->
<svg version="1.1" xmlns="http://www.w3.org/2000/svg" width="1024" height="1024" viewBox="0 0 1024 1024">
<title>twitter</title>
<g id="icomoon-ignore">
</g>
<path fill="#4d5ae5" d="M1024 512c0 0.197 0 0.429 0 0.661 0 141.176-57.319 268.965-149.955 361.363l-0.010 0.010c-92.409 92.646-220.198 149.965-361.374 149.965-0.232 0-0.465 0-0.697 0h0.036c-0.197 0-0.429 0-0.661 0-141.176 0-268.965-57.319-361.363-149.955l-0.010-0.010c-92.646-92.413-149.965-220.205-149.965-361.385 0-0.229 0-0.457 0-0.686v0.035c0-0.197 0-0.429 0-0.661 0-141.176 57.319-268.965 149.955-361.363l0.010-0.010c92.413-92.646 220.205-149.965 361.385-149.965 0.229 0 0.457 0 0.686 0h-0.035c0.197 0 0.429 0 0.661 0 141.176 0 268.965 57.319 361.363 149.955l0.010 0.010c92.646 92.409 149.965 220.198 149.965 361.374 0 0.232 0 0.465 0 0.697v-0.036z"></path>
<path fill="#f4f4fd" d="M716.8 384.998c-14.077 6.317-30.408 10.977-47.512 13.17l-0.872 0.091c17.407-10.455 30.483-26.603 36.774-45.822l0.167-0.59c-15.328 9.251-33.168 16.303-52.172 20.145l-1.076 0.182c-15.361-16.371-37.133-26.569-61.286-26.569-46.374 0-83.968 37.594-83.968 83.968 0 0.008 0 0.016 0 0.023v-0.001c0 6.656 0.563 13.056 1.946 19.149-69.991-3.535-131.558-36.836-172.74-87.4l-0.342-0.433c-7.203 12.141-11.46 26.764-11.46 42.381 0 28.981 14.66 54.539 36.969 69.661l0.295 0.189c-13.98-0.386-26.996-4.173-38.356-10.558l0.417 0.215v0.922c0.048 40.501 28.632 74.312 66.725 82.411l0.552 0.098c-6.408 1.758-13.766 2.767-21.36 2.767-0.231 0-0.461-0.001-0.692-0.003h0.035c-0.393 0.007-0.856 0.012-1.32 0.012-5.159 0-10.195-0.526-15.058-1.528l0.48 0.083c11.175 33.583 41.9 57.546 78.354 58.494l0.11 0.002c-28.342 22.329-64.561 35.815-103.93 35.815-0.065 0-0.13 0-0.195 0h0.010c-6.886 0-13.491-0.307-20.096-1.152 36.176 23.629 80.471 37.684 128.048 37.684 0.271 0 0.542 0 0.813-0.001h-0.042c154.522 0 239.002-128 239.002-238.95 0-3.712-0.128-7.296-0.307-10.854 16.626-11.992 30.601-26.449 41.705-42.994l0.381-0.603z"></path>
</svg>
